<mxfile host="app.diagrams.net" agent="Mozilla/5.0 (Windows NT 10.0; Win64; x64) AppleWebKit/537.36 (KHTML, like Gecko) Chrome/130.0.0.0 Safari/537.36" version="24.7.17" pages="6">
  <diagram name="Page-1" id="7xsKH6pPMwgzXLg-aELs">
    <mxGraphModel dx="880" dy="468" grid="1" gridSize="10" guides="1" tooltips="1" connect="1" arrows="1" fold="1" page="1" pageScale="1" pageWidth="850" pageHeight="1100" math="0" shadow="0">
      <root>
        <mxCell id="0" />
        <mxCell id="1" parent="0" />
        <mxCell id="hEX6vRJ63KsdVSKcUMxn-11" value="" style="edgeStyle=orthogonalEdgeStyle;rounded=0;orthogonalLoop=1;jettySize=auto;html=1;" parent="1" source="hEX6vRJ63KsdVSKcUMxn-1" target="hEX6vRJ63KsdVSKcUMxn-2" edge="1">
          <mxGeometry relative="1" as="geometry" />
        </mxCell>
        <mxCell id="hEX6vRJ63KsdVSKcUMxn-1" value="Start" style="ellipse;whiteSpace=wrap;html=1;" parent="1" vertex="1">
          <mxGeometry x="367.5" y="60" width="165" height="90" as="geometry" />
        </mxCell>
        <mxCell id="hEX6vRJ63KsdVSKcUMxn-3" value="Menunjukkan nilai dari analog potensio" style="shape=parallelogram;perimeter=parallelogramPerimeter;whiteSpace=wrap;html=1;fixedSize=1;" parent="1" vertex="1">
          <mxGeometry x="355" y="320" width="190" height="90" as="geometry" />
        </mxCell>
        <mxCell id="hEX6vRJ63KsdVSKcUMxn-14" value="" style="endArrow=none;html=1;rounded=0;" parent="1" source="hEX6vRJ63KsdVSKcUMxn-2" edge="1">
          <mxGeometry width="50" height="50" relative="1" as="geometry">
            <mxPoint x="410" y="290" as="sourcePoint" />
            <mxPoint x="450" y="230" as="targetPoint" />
          </mxGeometry>
        </mxCell>
        <mxCell id="hEX6vRJ63KsdVSKcUMxn-2" value="Tentukan nilai berdasarkan analog potensio" style="shape=parallelogram;perimeter=parallelogramPerimeter;whiteSpace=wrap;html=1;fixedSize=1;" parent="1" vertex="1">
          <mxGeometry x="360" y="190" width="180" height="90" as="geometry" />
        </mxCell>
        <mxCell id="hEX6vRJ63KsdVSKcUMxn-24" value="" style="endArrow=classic;startArrow=classic;html=1;rounded=0;" parent="1" edge="1">
          <mxGeometry width="50" height="50" relative="1" as="geometry">
            <mxPoint x="450" y="320" as="sourcePoint" />
            <mxPoint x="449.5" y="280" as="targetPoint" />
            <Array as="points" />
          </mxGeometry>
        </mxCell>
      </root>
    </mxGraphModel>
  </diagram>
  <diagram id="P4kOJuHA-Qv2yGfM0axs" name="Page-2">
    <mxGraphModel dx="880" dy="468" grid="1" gridSize="10" guides="1" tooltips="1" connect="1" arrows="1" fold="1" page="1" pageScale="1" pageWidth="850" pageHeight="1100" math="0" shadow="0">
      <root>
        <mxCell id="0" />
        <mxCell id="1" parent="0" />
        <mxCell id="n6y1z-Yo7t-sg9VH4C1c-1" value="" style="edgeStyle=orthogonalEdgeStyle;rounded=0;orthogonalLoop=1;jettySize=auto;html=1;" edge="1" source="n6y1z-Yo7t-sg9VH4C1c-2" target="n6y1z-Yo7t-sg9VH4C1c-5" parent="1">
          <mxGeometry relative="1" as="geometry" />
        </mxCell>
        <mxCell id="n6y1z-Yo7t-sg9VH4C1c-2" value="Start" style="ellipse;whiteSpace=wrap;html=1;" vertex="1" parent="1">
          <mxGeometry x="342.5" y="50" width="165" height="90" as="geometry" />
        </mxCell>
        <mxCell id="n6y1z-Yo7t-sg9VH4C1c-3" value="Menampilkan nilai dari analog potensio" style="shape=parallelogram;perimeter=parallelogramPerimeter;whiteSpace=wrap;html=1;fixedSize=1;" vertex="1" parent="1">
          <mxGeometry x="330" y="310" width="190" height="90" as="geometry" />
        </mxCell>
        <mxCell id="n6y1z-Yo7t-sg9VH4C1c-4" value="" style="endArrow=none;html=1;rounded=0;" edge="1" source="n6y1z-Yo7t-sg9VH4C1c-5" parent="1">
          <mxGeometry width="50" height="50" relative="1" as="geometry">
            <mxPoint x="385" y="280" as="sourcePoint" />
            <mxPoint x="425" y="220" as="targetPoint" />
          </mxGeometry>
        </mxCell>
        <mxCell id="n6y1z-Yo7t-sg9VH4C1c-5" value="Tentukan nilai voltage berdasarkan analog potensio" style="shape=parallelogram;perimeter=parallelogramPerimeter;whiteSpace=wrap;html=1;fixedSize=1;" vertex="1" parent="1">
          <mxGeometry x="335" y="180" width="180" height="90" as="geometry" />
        </mxCell>
        <mxCell id="n6y1z-Yo7t-sg9VH4C1c-6" value="" style="endArrow=classic;startArrow=classic;html=1;rounded=0;" edge="1" parent="1">
          <mxGeometry width="50" height="50" relative="1" as="geometry">
            <mxPoint x="425" y="310" as="sourcePoint" />
            <mxPoint x="424.5" y="270" as="targetPoint" />
            <Array as="points" />
          </mxGeometry>
        </mxCell>
      </root>
    </mxGraphModel>
  </diagram>
  <diagram id="WOu5z1Ee6XybZ4AOHJIU" name="Page-3">
    <mxGraphModel dx="197" dy="476" grid="1" gridSize="10" guides="1" tooltips="1" connect="1" arrows="1" fold="1" page="1" pageScale="1" pageWidth="850" pageHeight="1100" math="0" shadow="0">
      <root>
        <mxCell id="0" />
        <mxCell id="1" parent="0" />
        <mxCell id="LO2GCd7thXTgHZh84h_5-7" value="" style="edgeStyle=orthogonalEdgeStyle;rounded=0;orthogonalLoop=1;jettySize=auto;html=1;" parent="1" source="LO2GCd7thXTgHZh84h_5-1" target="LO2GCd7thXTgHZh84h_5-2" edge="1">
          <mxGeometry relative="1" as="geometry" />
        </mxCell>
        <mxCell id="LO2GCd7thXTgHZh84h_5-1" value="Start" style="ellipse;whiteSpace=wrap;html=1;" parent="1" vertex="1">
          <mxGeometry x="370" y="70" width="140" height="90" as="geometry" />
        </mxCell>
        <mxCell id="LO2GCd7thXTgHZh84h_5-6" style="edgeStyle=orthogonalEdgeStyle;rounded=0;orthogonalLoop=1;jettySize=auto;html=1;exitX=0.5;exitY=1;exitDx=0;exitDy=0;entryX=0.5;entryY=0;entryDx=0;entryDy=0;" parent="1" source="LO2GCd7thXTgHZh84h_5-2" target="LO2GCd7thXTgHZh84h_5-3" edge="1">
          <mxGeometry relative="1" as="geometry" />
        </mxCell>
        <mxCell id="LO2GCd7thXTgHZh84h_5-2" value="Pilih nilai pada analog&amp;nbsp;&lt;div&gt;potensio (0-1240)&lt;/div&gt;" style="shape=parallelogram;perimeter=parallelogramPerimeter;whiteSpace=wrap;html=1;fixedSize=1;" parent="1" vertex="1">
          <mxGeometry x="350" y="200" width="180" height="90" as="geometry" />
        </mxCell>
        <mxCell id="LO2GCd7thXTgHZh84h_5-3" value="Ubah nilai analog menjadi PWM (Voltage) (0-255)" style="rounded=0;whiteSpace=wrap;html=1;" parent="1" vertex="1">
          <mxGeometry x="360" y="330" width="160" height="90" as="geometry" />
        </mxCell>
        <mxCell id="LO2GCd7thXTgHZh84h_5-4" value="Tampilkan nilai voltage potensio" style="shape=parallelogram;perimeter=parallelogramPerimeter;whiteSpace=wrap;html=1;fixedSize=1;" parent="1" vertex="1">
          <mxGeometry x="350" y="460" width="170" height="80" as="geometry" />
        </mxCell>
        <mxCell id="LO2GCd7thXTgHZh84h_5-5" style="edgeStyle=orthogonalEdgeStyle;rounded=0;orthogonalLoop=1;jettySize=auto;html=1;exitX=0.5;exitY=1;exitDx=0;exitDy=0;entryX=0.541;entryY=-0.037;entryDx=0;entryDy=0;entryPerimeter=0;" parent="1" source="LO2GCd7thXTgHZh84h_5-3" target="LO2GCd7thXTgHZh84h_5-4" edge="1">
          <mxGeometry relative="1" as="geometry" />
        </mxCell>
        <mxCell id="LO2GCd7thXTgHZh84h_5-13" value="" style="endArrow=none;html=1;rounded=0;" parent="1" edge="1">
          <mxGeometry width="50" height="50" relative="1" as="geometry">
            <mxPoint x="510" y="510" as="sourcePoint" />
            <mxPoint x="590" y="510" as="targetPoint" />
          </mxGeometry>
        </mxCell>
        <mxCell id="LO2GCd7thXTgHZh84h_5-14" value="" style="endArrow=none;html=1;rounded=0;" parent="1" edge="1">
          <mxGeometry width="50" height="50" relative="1" as="geometry">
            <mxPoint x="590.0033333333332" y="510" as="sourcePoint" />
            <mxPoint x="590" y="240" as="targetPoint" />
          </mxGeometry>
        </mxCell>
        <mxCell id="LO2GCd7thXTgHZh84h_5-15" value="" style="endArrow=classic;html=1;rounded=0;" parent="1" edge="1">
          <mxGeometry width="50" height="50" relative="1" as="geometry">
            <mxPoint x="590" y="240" as="sourcePoint" />
            <mxPoint x="520" y="240" as="targetPoint" />
          </mxGeometry>
        </mxCell>
      </root>
    </mxGraphModel>
  </diagram>
  <diagram id="WzlIhdNzlnu4qb8vGgma" name="Page-4">
    <mxGraphModel dx="880" dy="468" grid="1" gridSize="10" guides="1" tooltips="1" connect="1" arrows="1" fold="1" page="1" pageScale="1" pageWidth="850" pageHeight="1100" math="0" shadow="0">
      <root>
        <mxCell id="0" />
        <mxCell id="1" parent="0" />
        <mxCell id="aYpGiaVqw2s0bX2Neu3e-1" value="" style="edgeStyle=orthogonalEdgeStyle;rounded=0;orthogonalLoop=1;jettySize=auto;html=1;" edge="1" parent="1" source="aYpGiaVqw2s0bX2Neu3e-2" target="aYpGiaVqw2s0bX2Neu3e-4">
          <mxGeometry relative="1" as="geometry" />
        </mxCell>
        <mxCell id="aYpGiaVqw2s0bX2Neu3e-2" value="Start" style="ellipse;whiteSpace=wrap;html=1;" vertex="1" parent="1">
          <mxGeometry x="370" y="70" width="140" height="90" as="geometry" />
        </mxCell>
        <mxCell id="aYpGiaVqw2s0bX2Neu3e-3" style="edgeStyle=orthogonalEdgeStyle;rounded=0;orthogonalLoop=1;jettySize=auto;html=1;exitX=0.5;exitY=1;exitDx=0;exitDy=0;entryX=0.5;entryY=0;entryDx=0;entryDy=0;" edge="1" parent="1" source="aYpGiaVqw2s0bX2Neu3e-4" target="aYpGiaVqw2s0bX2Neu3e-5">
          <mxGeometry relative="1" as="geometry" />
        </mxCell>
        <mxCell id="aYpGiaVqw2s0bX2Neu3e-4" value="Pilih nilai pada analog&amp;nbsp;&lt;div&gt;potensio (0-1240)&lt;/div&gt;" style="shape=parallelogram;perimeter=parallelogramPerimeter;whiteSpace=wrap;html=1;fixedSize=1;" vertex="1" parent="1">
          <mxGeometry x="350" y="200" width="180" height="90" as="geometry" />
        </mxCell>
        <mxCell id="aYpGiaVqw2s0bX2Neu3e-5" value="Ubah nilai analog menjadi nilaai sudut (Voltage) (0-255)" style="rounded=0;whiteSpace=wrap;html=1;" vertex="1" parent="1">
          <mxGeometry x="360" y="330" width="160" height="90" as="geometry" />
        </mxCell>
        <mxCell id="aYpGiaVqw2s0bX2Neu3e-6" value="Tampilkan nilai sudut&amp;nbsp;&lt;div&gt;ke servo&lt;/div&gt;" style="shape=parallelogram;perimeter=parallelogramPerimeter;whiteSpace=wrap;html=1;fixedSize=1;" vertex="1" parent="1">
          <mxGeometry x="350" y="460" width="170" height="80" as="geometry" />
        </mxCell>
        <mxCell id="aYpGiaVqw2s0bX2Neu3e-7" style="edgeStyle=orthogonalEdgeStyle;rounded=0;orthogonalLoop=1;jettySize=auto;html=1;exitX=0.5;exitY=1;exitDx=0;exitDy=0;entryX=0.541;entryY=-0.037;entryDx=0;entryDy=0;entryPerimeter=0;" edge="1" parent="1" source="aYpGiaVqw2s0bX2Neu3e-5" target="aYpGiaVqw2s0bX2Neu3e-6">
          <mxGeometry relative="1" as="geometry" />
        </mxCell>
        <mxCell id="aYpGiaVqw2s0bX2Neu3e-8" value="" style="endArrow=none;html=1;rounded=0;" edge="1" parent="1">
          <mxGeometry width="50" height="50" relative="1" as="geometry">
            <mxPoint x="510" y="510" as="sourcePoint" />
            <mxPoint x="590" y="510" as="targetPoint" />
          </mxGeometry>
        </mxCell>
        <mxCell id="aYpGiaVqw2s0bX2Neu3e-9" value="" style="endArrow=none;html=1;rounded=0;" edge="1" parent="1">
          <mxGeometry width="50" height="50" relative="1" as="geometry">
            <mxPoint x="590.0033333333332" y="510" as="sourcePoint" />
            <mxPoint x="590" y="240" as="targetPoint" />
          </mxGeometry>
        </mxCell>
        <mxCell id="aYpGiaVqw2s0bX2Neu3e-10" value="" style="endArrow=classic;html=1;rounded=0;" edge="1" parent="1">
          <mxGeometry width="50" height="50" relative="1" as="geometry">
            <mxPoint x="590" y="240" as="sourcePoint" />
            <mxPoint x="520" y="240" as="targetPoint" />
          </mxGeometry>
        </mxCell>
      </root>
    </mxGraphModel>
  </diagram>
  <diagram id="83VCnpNajWrUhug65tjm" name="Page-5">
    <mxGraphModel dx="880" dy="468" grid="1" gridSize="10" guides="1" tooltips="1" connect="1" arrows="1" fold="1" page="1" pageScale="1" pageWidth="850" pageHeight="1100" math="0" shadow="0">
      <root>
        <mxCell id="0" />
        <mxCell id="1" parent="0" />
      </root>
    </mxGraphModel>
  </diagram>
  <diagram id="vIIB17qesLdT2yFIIE_M" name="Page-6">
    <mxGraphModel dx="197" dy="476" grid="1" gridSize="10" guides="1" tooltips="1" connect="1" arrows="1" fold="1" page="1" pageScale="1" pageWidth="850" pageHeight="1100" math="0" shadow="0">
      <root>
        <mxCell id="0" />
        <mxCell id="1" parent="0" />
        <mxCell id="VXagNXhmrZMXVhYbVHm--6" style="edgeStyle=orthogonalEdgeStyle;rounded=0;orthogonalLoop=1;jettySize=auto;html=1;entryX=0.5;entryY=0;entryDx=0;entryDy=0;" edge="1" parent="1" source="zG1woGX59tY2gAoJikYA-1" target="zG1woGX59tY2gAoJikYA-2">
          <mxGeometry relative="1" as="geometry" />
        </mxCell>
        <mxCell id="zG1woGX59tY2gAoJikYA-1" value="START" style="ellipse;whiteSpace=wrap;html=1;" vertex="1" parent="1">
          <mxGeometry x="150" y="80" width="120" height="80" as="geometry" />
        </mxCell>
        <mxCell id="VXagNXhmrZMXVhYbVHm--4" style="edgeStyle=orthogonalEdgeStyle;rounded=0;orthogonalLoop=1;jettySize=auto;html=1;entryX=0.5;entryY=0;entryDx=0;entryDy=0;" edge="1" parent="1" source="zG1woGX59tY2gAoJikYA-2" target="zG1woGX59tY2gAoJikYA-3">
          <mxGeometry relative="1" as="geometry" />
        </mxCell>
        <mxCell id="zG1woGX59tY2gAoJikYA-2" value="Inisialisasi Serial dan DHT" style="rounded=0;whiteSpace=wrap;html=1;" vertex="1" parent="1">
          <mxGeometry x="150" y="210" width="120" height="60" as="geometry" />
        </mxCell>
        <mxCell id="VXagNXhmrZMXVhYbVHm--3" style="edgeStyle=orthogonalEdgeStyle;rounded=0;orthogonalLoop=1;jettySize=auto;html=1;entryX=0.5;entryY=0;entryDx=0;entryDy=0;" edge="1" parent="1" source="zG1woGX59tY2gAoJikYA-3" target="zG1woGX59tY2gAoJikYA-4">
          <mxGeometry relative="1" as="geometry" />
        </mxCell>
        <mxCell id="VXagNXhmrZMXVhYbVHm--5" style="edgeStyle=orthogonalEdgeStyle;rounded=0;orthogonalLoop=1;jettySize=auto;html=1;exitX=1;exitY=0.5;exitDx=0;exitDy=0;entryX=1;entryY=0.5;entryDx=0;entryDy=0;" edge="1" parent="1" source="zG1woGX59tY2gAoJikYA-3" target="zG1woGX59tY2gAoJikYA-1">
          <mxGeometry relative="1" as="geometry" />
        </mxCell>
        <mxCell id="zG1woGX59tY2gAoJikYA-3" value="Baca Kelembaban dan Suhu" style="rounded=0;whiteSpace=wrap;html=1;" vertex="1" parent="1">
          <mxGeometry x="150" y="320" width="120" height="60" as="geometry" />
        </mxCell>
        <mxCell id="VXagNXhmrZMXVhYbVHm--2" style="edgeStyle=orthogonalEdgeStyle;rounded=0;orthogonalLoop=1;jettySize=auto;html=1;entryX=0.5;entryY=0;entryDx=0;entryDy=0;" edge="1" parent="1" source="zG1woGX59tY2gAoJikYA-4" target="zG1woGX59tY2gAoJikYA-5">
          <mxGeometry relative="1" as="geometry" />
        </mxCell>
        <mxCell id="zG1woGX59tY2gAoJikYA-4" value="Kegagalan Pembacaan?" style="shape=parallelogram;perimeter=parallelogramPerimeter;whiteSpace=wrap;html=1;fixedSize=1;" vertex="1" parent="1">
          <mxGeometry x="150" y="440" width="120" height="60" as="geometry" />
        </mxCell>
        <mxCell id="VXagNXhmrZMXVhYbVHm--1" style="edgeStyle=orthogonalEdgeStyle;rounded=0;orthogonalLoop=1;jettySize=auto;html=1;exitX=0.5;exitY=1;exitDx=0;exitDy=0;entryX=0.5;entryY=0;entryDx=0;entryDy=0;" edge="1" parent="1" source="zG1woGX59tY2gAoJikYA-5" target="zG1woGX59tY2gAoJikYA-6">
          <mxGeometry relative="1" as="geometry" />
        </mxCell>
        <mxCell id="zG1woGX59tY2gAoJikYA-5" value="Cetak Kelembaban dan Suhu ke Serial" style="rounded=0;whiteSpace=wrap;html=1;" vertex="1" parent="1">
          <mxGeometry x="150" y="560" width="120" height="60" as="geometry" />
        </mxCell>
        <mxCell id="zG1woGX59tY2gAoJikYA-6" value="Tunggu 2 detik" style="rounded=0;whiteSpace=wrap;html=1;" vertex="1" parent="1">
          <mxGeometry x="150" y="680" width="120" height="60" as="geometry" />
        </mxCell>
      </root>
    </mxGraphModel>
  </diagram>
</mxfile>
